<?xml version="1.0" encoding="UTF-8" standalone="no"?>
<svg
   xmlns:dc="http://purl.org/dc/elements/1.1/"
   xmlns:cc="http://creativecommons.org/ns#"
   xmlns:rdf="http://www.w3.org/1999/02/22-rdf-syntax-ns#"
   xmlns:svg="http://www.w3.org/2000/svg"
   xmlns="http://www.w3.org/2000/svg"
   id="svg8"
   version="1.1"
   viewBox="0 0 92 92">
  <path
     id="path2"
     d="M0 0h92v92H0z"
     fill="#b50938" />
  <path
     d="m 14.445,56.001 -1.14,-2.54 H 9.687 l -0.036,0.098 c -0.32,0.738 -0.663,1.583 -0.97,2.343 H 7.332 l 2.918,-6.28 c 0.478,-1.03 0.798,-1.752 1.067,-2.463 l 0.32,-0.087 2.943,6.316 c 0.345,0.76 0.822,1.755 1.214,2.514 z m -1.594,-3.546 -1.361,-3.052 -1.349,3.052 z m 10.794,3.534 -2.207,-3.472 H 20.1 v 1.62 c 0,0.477 0.011,1.422 0.049,1.765 h -1.361 c 0.061,-0.589 0.085,-2.16 0.085,-2.956 v -2.71 c 0,-0.785 -0.024,-2.367 -0.085,-2.956 0.441,0 1.691,-0.048 2.256,-0.06 2.159,-0.037 3.347,1.153 3.311,2.513 a 2.675,2.675 0 0 1 -1.803,2.502 l 1.252,1.84 c 0.33,0.466 1.006,1.41 1.287,1.753 z M 20.101,51.5 h 1.238 a 1.608,1.608 0 0 0 1.754,-1.607 c 0,-1.055 -0.638,-1.605 -1.925,-1.605 -0.393,0 -0.736,0.011 -1.056,0.035 -0.01,0.246 -0.01,0.528 -0.01,0.711 z m 14.142,-3.177 c -0.945,-0.012 -1.766,-0.024 -2.858,-0.024 -0.013,0.258 -0.013,0.576 -0.013,0.772 v 5.066 c 0,0.477 0.013,1.422 0.05,1.765 h -1.36 c 0.06,-0.589 0.084,-2.159 0.084,-2.955 v -2.661 c 0,-0.503 -0.011,-1.3 -0.036,-1.987 -1.092,0 -1.95,0.012 -2.894,0.024 a 10.674,10.674 0 0 0 0.049,-1.116 101.42,101.42 0 0 0 7.077,0 7.828,7.828 0 0 0 -0.099,1.116 M 8.656,69.78 c 0.063,-0.585 0.086,-2.146 0.086,-2.938 v -2.696 c 0,-0.78 -0.023,-2.352 -0.086,-2.938 a 11.909,11.909 0 0 0 1.362,-0.06 c -0.037,0.353 -0.049,1.328 -0.049,1.804 v 5.073 c 0,0.462 0.012,1.415 0.049,1.756 z m 13.014,-6.829 -0.085,5.147 c 0,0.476 -0.012,1.464 0.024,1.805 l -0.318,0.085 -5.63,-6.427 v 4.463 c 0,0.476 0.012,1.416 0.05,1.756 h -1.35 c 0.074,-0.585 0.135,-2.146 0.147,-2.939 l 0.05,-2.937 c 0.012,-0.781 0.012,-2.233 -0.05,-2.818 L 14.84,61 l 5.679,6.524 v -3.378 c 0,-0.78 -0.025,-2.352 -0.098,-2.938 a 11.95,11.95 0 0 0 1.349,-0.06 c -0.05,0.353 -0.087,1.328 -0.1,1.804 M 27.633,70 a 4.864,4.864 0 0 1 -2.415,-0.72 l 0.073,-1.292 a 4.04,4.04 0 0 0 2.415,0.914 c 0.92,0 1.57,-0.45 1.57,-1.354 0,-1.705 -3.715,-1.791 -3.715,-4.036 A 2.563,2.563 0 0 1 28.27,61 a 3.43,3.43 0 0 1 2.011,0.635 l -0.405,1.073 a 2.898,2.898 0 0 0 -1.654,-0.61 c -0.897,0 -1.436,0.477 -1.436,1.245 0,1.524 3.704,1.597 3.704,4.036 A 2.613,2.613 0 0 1 27.633,70 m 12.596,-7.756 a 196.86,196.86 0 0 0 -2.857,-0.023 c -0.014,0.255 -0.014,0.572 -0.014,0.767 v 5.037 c 0,0.475 0.013,1.414 0.05,1.756 h -1.36 c 0.06,-0.586 0.084,-2.147 0.084,-2.94 v -2.645 c 0,-0.5 -0.011,-1.293 -0.037,-1.975 -1.09,0 -1.95,0.01 -2.893,0.023 a 10.568,10.568 0 0 0 0.049,-1.109 c 1.116,0.036 2.159,0.06 3.495,0.06 1.336,0 2.452,-0.024 3.581,-0.06 a 7.88,7.88 0 0 0 -0.098,1.109 m 3.325,7.536 c 0.063,-0.585 0.087,-2.146 0.087,-2.938 v -2.696 c 0,-0.78 -0.024,-2.352 -0.087,-2.938 a 11.904,11.904 0 0 0 1.362,-0.06 c -0.037,0.353 -0.049,1.328 -0.049,1.804 v 5.073 c 0,0.462 0.012,1.415 0.049,1.756 z m 11.543,-7.536 c -0.945,-0.013 -1.766,-0.023 -2.858,-0.023 -0.013,0.255 -0.013,0.572 -0.013,0.767 v 5.037 c 0,0.475 0.013,1.414 0.05,1.756 h -1.36 C 50.976,69.195 51,67.634 51,66.841 v -2.645 c 0,-0.5 -0.012,-1.293 -0.036,-1.975 -1.092,0 -1.95,0.01 -2.894,0.023 a 10.566,10.566 0 0 0 0.049,-1.109 c 1.115,0.036 2.159,0.06 3.495,0.06 1.336,0 2.452,-0.024 3.581,-0.06 a 7.741,7.741 0 0 0 -0.098,1.109 M 65.915,61.22 63.168,67.465 C 62.715,68.5 62.42,69.207 62.175,69.914 L 61.856,70 59.11,63.732 a 58.54,58.54 0 0 0 -1.154,-2.5 l 1.35,-0.097 2.685,6.402 1.656,-3.987 c 0.294,-0.72 0.614,-1.561 0.896,-2.33 z m 9.249,1.024 c -0.945,-0.013 -1.765,-0.023 -2.857,-0.023 -0.013,0.255 -0.013,0.572 -0.013,0.767 v 5.037 c 0,0.475 0.013,1.414 0.05,1.756 h -1.361 c 0.061,-0.586 0.085,-2.147 0.085,-2.94 v -2.645 c 0,-0.5 -0.012,-1.293 -0.037,-1.975 -1.091,0 -1.95,0.01 -2.893,0.023 a 10.568,10.568 0 0 0 0.048,-1.109 c 1.116,0.036 2.16,0.06 3.496,0.06 1.336,0 2.451,-0.024 3.58,-0.06 a 7.81,7.81 0 0 0 -0.098,1.109 m 8.662,7.586 c -0.737,-0.05 -1.644,-0.062 -2.515,-0.062 -0.871,0 -1.791,0.013 -2.514,0.061 0.06,-0.585 0.086,-2.158 0.086,-2.938 v -2.818 c 0,-0.791 -0.025,-2.353 -0.086,-2.938 a 49.629,49.629 0 0 0 4.869,0 7.513,7.513 0 0 0 -0.1,1.085 c -0.722,-0.012 -1.47,-0.024 -2.341,-0.024 -0.368,0 -0.736,0 -1.092,0.012 -0.024,0.22 -0.024,0.536 -0.024,0.72 v 1.841 h 2.98 a 12.27,12.27 0 0 0 -0.037,1 H 80.11 v 2.256 c 0,0.182 0,0.512 0.024,0.73 0.355,0 0.724,0.013 1.092,0.013 0.993,0 1.852,-0.012 2.685,-0.036 A 9.684,9.684 0 0 0 83.826,69.83 M 15.034,83.18 a 4.494,4.494 0 0 1 -2.809,0.98 4.252,4.252 0 0 1 -4.291,-4.304 4.55,4.55 0 0 1 4.524,-4.745 4.604,4.604 0 0 1 2.55,0.772 l -0.343,1.128 a 3.732,3.732 0 0 0 -2.28,-0.797 3.2,3.2 0 0 0 -3.19,3.386 c 0,2.243 1.374,3.457 3.102,3.457 a 3.925,3.925 0 0 0 2.822,-1.238 z m 9.384,0.76 c 0.073,-0.59 0.098,-2.159 0.098,-2.957 v -1.028 h -4.5 v 2.22 c 0,0.465 0.01,1.423 0.048,1.766 h -1.362 c 0.061,-0.59 0.087,-2.16 0.087,-2.957 v -2.71 c 0,-0.785 -0.026,-2.366 -0.087,-2.955 a 11.623,11.623 0 0 0 1.362,-0.062 c -0.037,0.356 -0.049,1.337 -0.049,1.816 v 1.876 h 4.501 v -0.675 c 0,-0.785 -0.025,-2.366 -0.098,-2.955 a 12.214,12.214 0 0 0 1.386,-0.062 c -0.05,0.356 -0.062,1.337 -0.062,1.816 v 5.101 c 0,0.466 0.012,1.424 0.061,1.766 z m 5.778,0 c 0.063,-0.59 0.086,-2.159 0.086,-2.957 v -2.71 c 0,-0.785 -0.023,-2.365 -0.086,-2.955 a 11.63,11.63 0 0 0 1.362,-0.062 c -0.036,0.356 -0.05,1.337 -0.05,1.816 v 5.102 c 0,0.465 0.014,1.423 0.05,1.766 z M 42.34,83.18 a 4.497,4.497 0 0 1 -2.81,0.98 4.252,4.252 0 0 1 -4.291,-4.304 4.55,4.55 0 0 1 4.525,-4.745 4.603,4.603 0 0 1 2.55,0.772 l -0.344,1.128 a 3.731,3.731 0 0 0 -2.281,-0.797 3.2,3.2 0 0 0 -3.188,3.385 c 0,2.243 1.374,3.457 3.102,3.457 a 3.925,3.925 0 0 0 2.821,-1.238 z m 9.64,0.859 -1.14,-2.54 h -3.617 l -0.036,0.1 c -0.32,0.735 -0.663,1.58 -0.97,2.342 h -1.349 l 2.919,-6.28 c 0.478,-1.03 0.797,-1.753 1.066,-2.464 l 0.32,-0.087 2.943,6.316 c 0.345,0.761 0.822,1.754 1.214,2.515 z M 50.387,80.494 49.026,77.44 47.677,80.494 Z M 61.93,79.892 c 0.489,-0.006 0.731,-0.018 1.27,-0.046 -0.061,0.465 -0.043,1.666 -0.043,2.464 v 0.943 a 5.13,5.13 0 0 1 -3.055,0.908 4.38,4.38 0 0 1 -4.439,-4.305 4.604,4.604 0 0 1 4.672,-4.746 5.202,5.202 0 0 1 2.723,0.772 l -0.344,1.128 a 4.249,4.249 0 0 0 -2.453,-0.797 3.213,3.213 0 0 0 -3.335,3.386 3.165,3.165 0 0 0 3.25,3.457 3.6,3.6 0 0 0 1.778,-0.392 V 81.17 c 0,-0.185 0,-0.515 -0.024,-0.736 z m 13.16,-0.477 a 4.467,4.467 0 0 1 -4.427,4.746 4.16,4.16 0 0 1 -4.182,-4.305 4.466,4.466 0 0 1 4.428,-4.746 4.16,4.16 0 0 1 4.182,4.304 m -1.263,0.197 c 0,-2.171 -1.326,-3.46 -3.055,-3.46 -1.814,0 -3.028,1.596 -3.028,3.509 0,2.17 1.323,3.46 3.053,3.46 1.816,0 3.03,-1.596 3.03,-3.509"
     id="path4"
     style="fill:#ffffff" />
</svg>
